<?xml version="1.0" standalone="no"?>
<!DOCTYPE svg PUBLIC "-//W3C//DTD SVG 20010904//EN"
 "http://www.w3.org/TR/2001/REC-SVG-20010904/DTD/svg10.dtd">
<svg version="1.0" xmlns="http://www.w3.org/2000/svg"
 width="267.000000pt" height="267.000000pt" viewBox="0 0 267.000000 267.000000"
 preserveAspectRatio="xMidYMid meet">
<metadata>
Created by potrace 1.11, written by Peter Selinger 2001-2013
</metadata>
<g transform="translate(0.000000,267.000000) scale(0.100000,-0.100000)"
fill="#000000" stroke="none">
<path d="M1339 2616 c-3 -3 -42 -6 -87 -8 -45 -1 -82 -5 -82 -8 0 -3 -12 -5
-27 -4 -16 1 -36 -3 -45 -8 -13 -6 -18 -5 -18 4 0 10 -2 10 -8 1 -4 -7 -22
-13 -39 -15 -17 -1 -29 -6 -27 -10 5 -7 -26 -12 -63 -11 -7 1 -10 -3 -7 -8 3
-5 -6 -9 -20 -9 -14 0 -28 -4 -31 -10 -3 -5 -15 -10 -26 -10 -10 0 -19 -4 -19
-8 0 -4 -9 -8 -20 -9 -11 -1 -27 -9 -36 -17 -14 -15 -28 -20 -46 -17 -5 0 -8
-3 -8 -7 0 -5 -16 -14 -35 -22 -19 -8 -35 -20 -35 -27 0 -7 -3 -12 -7 -11 -12
4 -103 -62 -103 -74 0 -6 -3 -8 -6 -5 -4 4 -15 -3 -25 -15 -11 -11 -19 -18
-19 -14 0 8 -39 -33 -65 -67 -9 -12 -13 -15 -10 -7 3 8 0 6 -7 -4 -7 -10 -21
-26 -30 -35 -10 -8 -18 -21 -18 -29 0 -7 -4 -10 -10 -7 -5 3 -10 -1 -10 -9 0
-9 -4 -16 -8 -16 -5 0 -17 -16 -28 -35 -10 -19 -22 -35 -26 -35 -5 0 -8 -6 -8
-13 0 -7 -10 -24 -23 -37 -12 -14 -23 -32 -25 -40 -2 -7 -12 -26 -23 -41 -10
-15 -19 -35 -19 -44 0 -9 -4 -14 -8 -11 -4 2 -9 -4 -10 -15 -4 -42 -6 -49 -13
-49 -3 0 -9 -8 -13 -17 -3 -10 -9 -25 -14 -33 -24 -42 -32 -62 -32 -85 0 -15
-4 -24 -8 -21 -4 2 -8 -6 -8 -20 0 -13 4 -24 8 -24 10 0 5 -60 -5 -77 -4 -6
-3 -15 3 -18 7 -4 8 -11 1 -18 -12 -16 -13 -280 -1 -272 6 4 10 1 10 -4 0 -6
-6 -11 -12 -11 -9 0 -8 -4 2 -10 13 -9 13 -10 0 -10 -9 0 -11 -3 -5 -8 6 -4
11 -20 12 -36 1 -16 8 -33 15 -38 9 -5 9 -8 1 -8 -8 0 -9 -9 -3 -30 5 -16 6
-30 2 -30 -4 0 -1 -4 5 -8 7 -5 14 -20 15 -35 1 -15 6 -27 10 -27 4 0 8 -13 8
-30 0 -16 5 -30 10 -30 6 0 10 -11 10 -24 0 -14 5 -28 10 -31 6 -3 10 -15 10
-26 0 -11 4 -17 10 -14 5 3 10 0 10 -7 0 -20 24 -68 33 -68 5 0 6 -4 3 -8 -3
-5 3 -18 14 -29 10 -12 16 -24 13 -27 -4 -3 -1 -6 5 -6 7 0 18 -16 26 -35 8
-19 20 -35 26 -35 6 0 8 -5 5 -10 -3 -5 -1 -10 4 -10 6 0 11 -7 11 -16 0 -8 4
-12 10 -9 5 3 10 -1 10 -10 0 -9 4 -13 10 -10 5 3 10 -1 10 -9 0 -8 9 -21 20
-29 11 -8 17 -17 13 -20 -3 -4 1 -7 10 -7 9 0 17 -4 17 -10 0 -15 42 -50 53
-43 6 3 7 2 4 -4 -3 -5 3 -17 14 -26 10 -9 19 -14 19 -10 0 3 10 -6 23 -20 12
-15 28 -27 35 -27 7 0 12 -4 12 -10 0 -5 6 -10 13 -10 7 0 19 -9 27 -20 8 -11
22 -20 32 -20 9 0 21 -6 25 -13 7 -12 37 -29 55 -31 4 -1 13 -7 19 -13 7 -7
19 -13 26 -13 7 0 13 -6 13 -12 0 -9 4 -8 10 2 5 8 10 10 10 4 0 -11 46 -29
63 -26 4 1 7 -4 7 -12 0 -10 8 -13 24 -10 14 2 28 0 31 -6 3 -5 20 -10 36 -10
18 0 28 -4 24 -10 -4 -6 8 -10 29 -10 19 0 38 -4 41 -10 3 -5 11 -10 16 -10 6
0 7 5 3 12 -5 7 -3 8 7 2 8 -4 21 -10 29 -11 8 -1 24 -4 35 -5 11 -2 25 -7 32
-11 6 -4 14 -3 18 3 4 6 12 7 18 3 17 -11 197 -10 197 0 0 5 6 4 13 -2 8 -6
17 -8 21 -4 7 7 24 10 93 14 20 1 30 6 26 13 -4 6 2 4 12 -4 11 -9 16 -10 11
-2 -5 8 2 12 24 12 16 0 39 4 50 10 11 5 29 14 40 20 11 5 28 10 38 10 10 0
24 6 31 12 11 11 12 10 6 -2 -8 -13 -7 -13 8 -1 9 7 17 10 17 7 0 -4 7 0 16 8
8 9 20 14 25 11 5 -4 9 -2 9 2 0 5 16 15 35 22 19 7 35 17 35 22 0 6 4 8 9 4
5 -3 16 2 25 10 8 9 18 14 20 13 3 -2 14 5 26 14 11 10 20 14 20 10 0 -4 5 1
11 11 5 9 17 17 24 17 8 0 15 5 15 10 0 6 5 10 10 10 6 0 29 18 52 40 23 21
45 37 50 34 4 -3 8 1 8 8 0 7 20 31 45 52 25 22 45 44 45 49 0 14 27 37 35 29
5 -4 5 -2 2 5 -4 6 6 25 23 41 16 17 30 38 30 47 0 9 5 13 10 10 6 -3 10 1 10
9 0 9 5 16 10 16 6 0 10 9 10 19 0 18 27 79 40 91 3 3 6 12 5 20 0 13 -36 15
-263 15 -144 0 -262 3 -262 8 0 4 122 7 271 7 284 0 290 1 297 45 2 11 7 22
11 25 4 3 6 12 6 20 0 8 3 18 8 21 4 3 9 20 9 37 1 19 5 29 11 25 6 -4 8 0 4
9 -3 9 0 21 6 27 6 6 7 11 3 11 -5 0 -3 7 5 16 10 13 10 17 0 24 -8 4 -9 9 -3
11 6 2 11 20 13 39 2 19 5 40 8 45 3 6 7 19 8 30 3 16 1 17 -7 5 -5 -8 -10
-10 -10 -4 0 6 3 14 8 18 9 9 12 207 3 201 -4 -2 -7 5 -7 15 0 10 3 17 6 15 9
-5 6 33 -3 41 -4 4 -7 25 -7 46 0 29 -3 37 -12 32 -8 -5 -7 0 2 11 9 11 10 16
3 11 -9 -5 -13 -1 -13 13 0 11 -8 24 -17 30 -10 5 -18 15 -19 23 0 7 -2 23 -2
36 -1 12 -11 31 -22 42 -11 11 -17 20 -12 20 4 0 2 4 -5 8 -6 4 -13 16 -15 27
-1 11 -5 22 -8 25 -3 3 -11 16 -18 29 -11 19 -11 22 0 15 7 -4 5 2 -4 13 -10
11 -18 27 -18 37 0 9 -4 14 -10 11 -6 -3 -10 1 -10 10 0 9 -9 25 -20 37 -11
12 -20 30 -20 40 0 10 -5 18 -12 18 -6 0 -9 3 -5 6 3 3 -5 17 -19 31 -13 13
-21 30 -18 36 4 7 4 9 -1 5 -7 -7 -45 32 -45 47 0 12 -68 73 -74 67 -3 -3 -6
2 -6 11 0 10 -5 17 -11 17 -5 0 -7 5 -4 10 4 6 2 9 -3 8 -5 -2 -21 9 -35 24
-14 15 -31 29 -38 30 -7 2 -24 15 -39 31 -15 15 -32 27 -39 27 -6 0 -11 5 -11
11 0 5 -4 7 -10 4 -5 -3 -10 1 -10 10 0 9 -4 13 -10 10 -5 -3 -20 3 -32 14
-12 12 -29 21 -38 21 -8 0 -22 9 -29 19 -8 11 -20 17 -28 14 -7 -3 -13 0 -13
6 0 6 -8 11 -17 11 -10 0 -26 7 -36 15 -11 7 -26 11 -35 8 -10 -4 -13 -2 -8 5
5 8 -4 12 -28 12 -20 0 -36 5 -36 10 0 6 -11 10 -25 10 -14 0 -25 4 -25 8 0 4
-14 9 -32 10 -17 2 -38 8 -47 15 -12 10 -13 9 -6 -3 7 -12 6 -13 -6 -3 -8 6
-30 10 -51 9 -20 0 -34 2 -31 7 2 4 -7 6 -21 3 -14 -3 -28 -1 -31 4 -3 5 -18
5 -34 0 -17 -4 -33 -4 -38 1 -5 5 -11 7 -14 5z"/>
</g>
</svg>
